<svg xmlns="http://www.w3.org/2000/svg" width="16" height="16" viewBox="0 0 16 16" fill="none">
  <defs>
    <linearGradient id="cQryBody" x1="1" y1="1" x2="11" y2="13" gradientUnits="userSpaceOnUse">
      <stop offset="0%" stop-color="#94a3b8"/><stop offset="50%" stop-color="#64748b"/><stop offset="100%" stop-color="#334155"/>
    </linearGradient>
    <linearGradient id="cQryLens" x1="8" y1="7" x2="15" y2="15" gradientUnits="userSpaceOnUse">
      <stop offset="0%" stop-color="#f8fafc"/><stop offset="50%" stop-color="#cbd5e1"/><stop offset="100%" stop-color="#64748b"/>
    </linearGradient>
  </defs>
  <ellipse cx="5.8" cy="3.2" rx="4.8" ry="1.8" fill="url(#cQryBody)" stroke="#cbd5e1" stroke-width="0.7"/>
  <path d="M1.0 3.2V7.4C1.0 8.5 3.1 9.4 5.8 9.4C8.5 9.4 10.6 8.5 10.6 7.4V3.2" fill="url(#cQryBody)" stroke="#cbd5e1" stroke-width="0.7"/>
  <path d="M1.0 7.4V11.8C1.0 12.9 3.1 13.8 5.8 13.8C8.5 13.8 10.6 12.9 10.6 11.8V7.4" fill="url(#cQryBody)" stroke="#cbd5e1" stroke-width="0.7"/>
  <circle cx="3.0" cy="5.4" r="0.7" fill="#ffffff"/>
  <circle cx="3.0" cy="9.8" r="0.7" fill="#ffffff"/>
  <line x1="4.8" y1="5.4" x2="8.8" y2="5.4" stroke="#e2e8f0" stroke-width="0.9" stroke-linecap="round"/>
  <line x1="4.8" y1="9.8" x2="7.8" y2="9.8" stroke="#e2e8f0" stroke-width="0.9" stroke-linecap="round"/>
  <circle cx="11.2" cy="10.4" r="4.2" fill="#0f172a"/>
  <circle cx="11.2" cy="10.4" r="3.4" fill="#0f172a" stroke="url(#cQryLens)" stroke-width="1.3"/>
  <circle cx="11.2" cy="10.4" r="2.2" fill="#94a3b8" fill-opacity="0.25"/>
  <path d="M10.0 10.4A1.2 1.2 0 0 1 11.2 9.2" stroke="#ffffff" stroke-width="0.7" stroke-linecap="round"/>
  <line x1="13.6" y1="12.8" x2="15.5" y2="14.8" stroke="url(#cQryLens)" stroke-width="2.0" stroke-linecap="round"/>
</svg>
