<svg xmlns="http://www.w3.org/2000/svg" width="16" height="16" viewBox="0 0 16 16" fill="none">
  <defs>
    <linearGradient id="wandShaft" x1="1.5" y1="14.5" x2="9" y2="7" gradientUnits="userSpaceOnUse">
      <stop offset="0%" stop-color="#334155"/><stop offset="50%" stop-color="#94a3b8"/><stop offset="100%" stop-color="#f8fafc"/>
    </linearGradient>
    <linearGradient id="sparkGold" x1="9" y1="0" x2="16" y2="7" gradientUnits="userSpaceOnUse">
      <stop offset="0%" stop-color="#fef08a"/><stop offset="100%" stop-color="#f59e0b"/>
    </linearGradient>
  </defs>
  <line x1="1.8" y1="14.2" x2="8.6" y2="7.4" stroke="url(#wandShaft)" stroke-width="2.6" stroke-linecap="round"/>
  <line x1="3.2" y1="12.8" x2="4.4" y2="11.6" stroke="#fbbf24" stroke-width="2.6"/>
  <line x1="8.6" y1="7.4" x2="11.8" y2="4.2" stroke="#ffffff" stroke-width="2.6" stroke-linecap="round"/>
  <path d="M13.2 0.4L14.0 2.4L16.0 3.2L14.0 4.0L13.2 6.0L12.4 4.0L10.4 3.2L12.4 2.4L13.2 0.4Z" fill="url(#sparkGold)"/>
  <path d="M5.4 2.2L5.9 3.4L7.1 3.9L5.9 4.4L5.4 5.6L4.9 4.4L3.7 3.9L4.9 3.4L5.4 2.2Z" fill="#fbbf24"/>
  <path d="M12.4 9.0L12.8 10.0L13.8 10.4L12.8 10.8L12.4 11.8L12.0 10.8L11.0 10.4L12.0 10.0L12.4 9.0Z" fill="#fde047"/>
</svg>
