<svg xmlns="http://www.w3.org/2000/svg" width="16" height="16" viewBox="0 0 16 16" fill="none">
  <path d="M6.36 2.96L6.78 1.11L9.22 1.11L9.64 2.96L10.41 3.28L12.02 2.27L13.73 3.98L12.72 5.59L13.04 6.36L14.89 6.78L14.89 9.22L13.04 9.64L12.72 10.41L13.73 12.02L12.02 13.73L10.41 12.72L9.64 13.04L9.22 14.89L6.78 14.89L6.36 13.04L5.59 12.72L3.98 13.73L2.27 12.02L3.28 10.41L2.96 9.64L1.11 9.22L1.11 6.78L2.96 6.36L3.28 5.59L2.27 3.98L3.98 2.27L5.59 3.28Z" fill="url(#setGrad)"/>
  <circle cx="8" cy="8" r="3" fill="#1e293b"/>
  <circle cx="8" cy="8" r="1.3" fill="#94a3b8"/>
  <defs>
    <linearGradient id="setGrad" x1="1" y1="1" x2="15" y2="15" gradientUnits="userSpaceOnUse"><stop stop-color="#94a3b8"/><stop offset="1" stop-color="#64748b"/></linearGradient>
  </defs>
</svg>
