<svg xmlns="http://www.w3.org/2000/svg" width="16" height="16" viewBox="0 0 16 16" fill="none">
  <defs>
    <linearGradient id="commGrad" x1="5" y1="2" x2="15" y2="12" gradientUnits="userSpaceOnUse">
      <stop offset="0%" stop-color="#fbbf24"/>
      <stop offset="60%" stop-color="#f97316"/>
      <stop offset="100%" stop-color="#c2410c"/>
    </linearGradient>
    <linearGradient id="commFlame" x1="5" y1="10" x2="0.5" y2="15.5" gradientUnits="userSpaceOnUse">
      <stop offset="0%" stop-color="#fef08a"/>
      <stop offset="40%" stop-color="#f97316"/>
      <stop offset="100%" stop-color="#dc2626"/>
    </linearGradient>
    <linearGradient id="commFin" x1="3" y1="7" x2="9" y2="14" gradientUnits="userSpaceOnUse">
      <stop offset="0%" stop-color="#ef4444"/>
      <stop offset="100%" stop-color="#b91c1c"/>
    </linearGradient>
  </defs>
  <path d="M4.8 6.8L1.2 8.4L2.0 11.6L3.8 9.8Z" fill="url(#commFin)"/>
  <path d="M9.2 11.2L7.6 14.8L4.4 14.0L6.2 12.2Z" fill="url(#commFin)"/>
  <path d="M3.8 10.2C3.0 11.4 2.0 12.6 0.6 15.4C3.4 14.0 4.6 13.0 5.8 12.2C5.0 11.8 4.2 11.0 3.8 10.2Z" fill="url(#commFlame)"/>
  <path d="M15.4 0.6C11.6 1.4 6.0 5.0 3.8 10.0L6.0 12.2C11.0 10.0 14.6 4.4 15.4 0.6Z" fill="url(#commGrad)"/>
  <circle cx="10" cy="6" r="2.2" fill="#ffffff"/>
  <circle cx="10" cy="6" r="1.4" fill="#ea580c"/>
  <circle cx="9.6" cy="5.6" r="0.5" fill="#fef08a"/>
  <circle cx="12.4" cy="12.4" r="3.4" fill="#0f172a" stroke="#fbbf24" stroke-width="1"/>
  <circle cx="12.4" cy="12.4" r="1.2" fill="#fbbf24"/>
  <path d="M12.4 9.8V11M12.4 13.8V15M9.8 12.4H11M13.8 12.4H15" stroke="#fbbf24" stroke-width="1.1" stroke-linecap="round"/>
</svg>
